<?xml version="1.0" encoding="UTF-8"?>
<svg width="17px" height="17px" viewBox="0 0 17 17" version="1.1" xmlns="http://www.w3.org/2000/svg" xmlns:xlink="http://www.w3.org/1999/xlink">
    <title>Group 6</title>
    <defs>
        <polygon id="path-1" points="5.3125e-05 0.122255319 16.8889688 0.122255319 16.8889688 16.8191489 5.3125e-05 16.8191489"></polygon>
    </defs>
    <g id="Symbols" stroke="none" stroke-width="1" fill="none" fill-rule="evenodd">
        <g id="Navigation/Logged-In" transform="translate(-36, -18)">
            <g id="Group-2" transform="translate(-5, 0)">
                <g id="Group-4" transform="translate(0, 12)">
                    <g id="Group-6" transform="translate(41, 6)">
                        <g id="Group-3">
                            <mask id="mask-2" fill="white">
                                <use xlink:href="#path-1"></use>
                            </mask>
                            <g id="Clip-2"></g>
                            <path d="M16.2768448,5.12577128 C15.8681365,4.07231383 15.293501,3.17818617 14.5522302,2.4430266 C13.8109594,1.70804787 12.9248344,1.13746277 11.8931469,0.731090426 C10.8619906,0.325441489 9.71201146,0.122164894 8.44462604,0.122164894 C7.17653229,0.122164894 6.02743854,0.319654255 4.99575104,0.71481383 C3.96459479,1.1096117 3.07811563,1.67513298 2.33666771,2.40993085 C1.59539688,3.14545213 1.02040729,4.03921809 0.612053125,5.09267553 C0.203876042,6.14595213 5.3125e-05,7.32021809 5.3125e-05,8.61493085 C5.3125e-05,9.9315266 0.203876042,11.1166436 0.612053125,12.1699202 C1.02040729,13.2233777 1.59539688,14.1176862 2.33666771,14.8528457 C3.07811563,15.5881862 3.96459479,16.152984 4.99575104,16.5481436 C5.26509479,16.6512287 5.36620938,16.7400266 5.65166771,16.8163457 L5.65166771,6.48540957 L10.943449,6.48540957 L10.943449,16.8192394 C11.2078344,16.750516 11.642751,16.671484 11.8931469,16.5808777 C12.9248344,16.2079628 13.8109594,15.6592606 14.5522302,14.9349521 C15.293501,14.2108245 15.8681365,13.3168777 16.2768448,12.2522074 C16.6846677,11.1880798 16.8890219,9.97583511 16.8890219,8.61493085 C16.8890219,7.34228191 16.6846677,6.17904787 16.2768448,5.12577128" id="Fill-1" fill="#528D3F" mask="url(#mask-2)"></path>
                        </g>
                        <path d="M7.4375,13.28125 C7.4375,13.5745422 7.19954223,13.8125 6.90625,13.8125 C6.61295777,13.8125 6.375,13.5745422 6.375,13.28125 C6.375,12.9879578 6.61295777,12.75 6.90625,12.75 C7.19954223,12.75 7.4375,12.9879578 7.4375,13.28125" id="Fill-4" fill="#528D3F"></path>
                    </g>
                </g>
            </g>
        </g>
    </g>
</svg>